<svg xmlns="http://www.w3.org/2000/svg" viewBox="0 0 152 152" width="100" height="100">
<defs>
<linearGradient id="gradient" x1="0%" y1="0%" x2="0%" y2="20%">
<stop offset="0%" style="stop-color:#FDF5F1;"/>
<stop offset="100%" style="stop-color:#2f5597;"/>
</linearGradient>
<mask id="mask">
<circle cx="76" cy="76" r="60" fill="white"/>
</mask>
</defs>
<circle cx="76" cy="76" r="60" fill="none" stroke="url(#gradient)" stroke-width="16" mask="url(#mask)">
<animateTransform attributeName="transform" type="rotate" from="0 76 76" to="360 76 76" dur="2s" repeatCount="indefinite"/>
</circle>
<svg width="64" height="64" x="44" y="44">
<style>.a{fill:#2f5597}.b{fill:#2f5597}</style>
<path class="a" d="m29.8 18.9l1.1-2.5h8.9l-1.2 2.5z"/>
<path class="a" d="m42.8 16.4h13.6l-1.3 2.5h-13.5z"/>
<path class="a" d="m28.1 22.5l1.2-2.6h8.9l-1.3 2.6z"/>
<path class="a" d="m39.9 22.5l1.2-2.6h13.6l-1.2 2.6z"/>
<path class="a" d="m35.3 25.9l1.3-2.5h-8.9l-1.2 2.5z"/>
<path class="a" d="m38.3 25.9l1.2-2.5h13.5l-1.2 2.5z"/>
<path class="a" d="m4.8 39.5l0.2-0.4h3.6l-0.2 0.4z"/>
<path class="a" d="m3.2 43l0.2-0.4h3.6l-0.2 0.4z"/>
<path class="a" d="m1.5 46.5l0.2-0.4h3.7l-0.2 0.4z"/>
<path class="a" d="m18.6 39.4h2.4l-1.3-2h-0.1z"/>
<path class="a" d="m18 40.9h3.9l1.5 2.1h-4.8l-1-1.3z"/>
<path class="a" d="m21.4 46.4l-1.7-2h4.7l1.6 2z"/>
<path class="a" d="m24.5 50l-1.9-2.1h4.6l2 2.1z"/>
<path class="a" d="m27.7 53.4l-2-2h4.8l2.4 2z"/>
<path class="a" d="m31.4 57l-2.3-2.1h5.7l3.7 2.1z"/>
<path class="b" d="m60.1 8.5c0 0-0.6-2.6-3.9-2.6-3.2 0-35.7 0-35.7 0l-0.7 1.6h27.2l-0.5 1z"/>
<path class="b" d="m58.4 11.9h-13.5l0.5-0.9h-27.2l0.7-1.7h40.8z"/>
<path class="b" d="m56.8 15.5h-13.6l0.5-1h-27.2l0.8-1.7h40.7z"/>
<path class="b" d="m37.9 16.1h5l-0.2 0.5h-3l0.1-0.2h-2z"/>
<path class="b" d="m36.1 19.9l0.5-1h5l-0.5 1z"/>
<path class="b" d="m34.9 22.5l-0.4 0.9h5l0.4-0.9z"/>
<path class="b" d="m35.3 25.9l0.2-0.3h3l-0.3 0.5h-5l0.1-0.2z"/>
<path class="b" d="m37.1 28.5l-0.5 1h13.6l1.2-2.7h-40.7l-0.8 1.7"/>
<path class="b" d="m35.4 32h-27.1l0.7-1.7h40.8l-1.3 2.7h-13.5z"/>
<path class="b" d="m48.1 33.8c0 0-0.5 2.7-3.9 2.7-3.5 0-10.8 0-10.8 0l0.4-1h-27.2l0.8-1.7z"/>
<path class="b" d="m8.2 40l0.4-0.9h-3.7l0.8-1.7h13.9l-1.2 2.6z"/>
<path class="b" d="m7 42.6h-3.7l0.8-1.7h13.9l-1.3 2.6h-10.1z"/>
<path class="b" d="m5.4 46.1h-3.8l0.8-1.7h13.9l-1.2 2.6h-10.2z"/>
<path class="b" d="m21.3 40l-1.6-2.6h13.8l1.2 2.6z"/>
<path class="b" d="m23.8 43.5l-1.9-2.6h13.3l2.1 2.6z"/>
<path class="b" d="m26.4 47l-2-2.6h13.7l2.9 2.6z"/>
<path class="b" d="m29.6 50.5l-2.4-2.6h15l3.8 2.6z"/>
<path class="b" d="m33.6 54l-3.1-2.6h17.1l5.2 2.6z"/>
<path class="b" d="m39.4 57.5l-4.6-2.6h20.2l6.9 2.6z"/>
</svg>
</svg>